<svg xmlns="http://www.w3.org/2000/svg" viewBox="0 0 96 96" fill="currentColor">
  <path d="M43.3,3.9c5.8,0,11,2.4,14.8,6.1c3.8,3.8,6.1,9,6.1,14.8c0,5.8-2.3,11-6.1,14.8c-1.7,1.7-3.7,3.1-6,4.2
    c2.7,0.7,5.3,1.8,7.7,3.1c1.1,0.6,1.5,2,0.9,3.1c-0.6,1.1-2,1.5-3.1,0.9c-2.2-1.2-4.5-2.1-7-2.7c-2.4-0.6-4.9-0.9-7.4-0.9
    c-8.2,0-15.6,3.3-21.1,8.8c-5.4,5.4-8.8,12.8-8.8,21v4.1c0,0.8,0.3,1.5,0.8,2c0.5,0.5,1.3,0.8,2.2,0.8h28.7c1.3,0,2.3,1,2.3,2.3
    c0,1.3-1,2.3-2.3,2.3H16.5c-2.1,0-4-0.8-5.3-2.2c-1.4-1.3-2.2-3.2-2.2-5.3V77c0-9.4,3.9-18.1,10.1-24.3
    c4.2-4.2,9.5-7.3,15.4-8.9c-2.2-1-4.2-2.5-5.9-4.2c-3.8-3.8-6.1-9-6.1-14.8c0-5.8,2.3-11,6.1-14.8C32.3,6.3,37.5,3.9,43.3,3.9z
    M67.9,60.1c1.2-0.7,3-0.7,3.8,0.6c0.8,1.3-0.1,2.9-1.3,3.6c-1.2,0.7-3,0.8-3.8-0.6C65.8,62.4,66.7,60.8,67.9,60.1z
    M68.2,81.2l1.9-0.7c0.2-0.1,0.5-0.1,0.7,0.1c0.2,0.1,0.3,0.4,0.4,0.6l0.1,0.8l-0.1,0.1c-1.8,1.2-4.5,2.4-6.7,2.9
    c-0.4,0.1-0.7,0.1-1.1-0.2c-0.3-0.3-0.5-0.7-0.4-1l2.2-13.3L64,70.9c-0.4,0.1-0.8-0.1-1-0.4l-0.4-0.9l0.2-0.1
    c1.9-1.2,4.3-2,6.4-2.6c0.4-0.1,0.8-0.1,1.1,0.2c0.3,0.3,0.5,0.7,0.4,1L68.2,81.2z
    M67.3,52.4c5.5,0,10.4,2.2,14,5.8c3.6,3.6,5.8,8.5,5.8,14c0,5.5-2.2,10.4-5.8,14c-3.6,3.6-8.6,5.8-14,5.8
    c-5.5,0-10.4-2.2-14-5.8c-3.6-3.6-5.8-8.5-5.8-14c0-5.5,2.2-10.5,5.8-14C56.8,54.6,61.8,52.4,67.3,52.4z
    M78.1,61.5c-2.8-2.7-6.6-4.5-10.8-4.5c-4.2,0-8,1.7-10.8,4.5c-2.8,2.8-4.5,6.6-4.5,10.8c0,4.2,1.7,8,4.5,10.8
    c2.7,2.7,6.6,4.5,10.8,4.5c4.2,0,8-1.7,10.8-4.5c2.7-2.7,4.5-6.6,4.5-10.8C82.5,68.1,80.8,64.3,78.1,61.5z
    M54.8,13.3c-2.9-2.9-7-4.8-11.5-4.8c-4.5,0-8.6,1.8-11.5,4.8c-2.9,2.9-4.8,7-4.8,11.5c0,4.5,1.8,8.6,4.8,11.5
    s7,4.8,11.5,4.8c4.5,0,8.6-1.8,11.5-4.8s4.8-7,4.8-11.5C59.6,20.3,57.8,16.2,54.8,13.3z"/>
</svg>
